<svg
  viewBox="0 0 21 21"
  fill="currentColor"
>
  <g fill="none" fillRule="evenodd" transform="translate(2 2)">
    <path
      stroke="currentColor"
      strokeLinecap="round"
      strokeLinejoin="round"
      d="M16.5 8.5 A8 8 0 0 1 8.5 16.5 A8 8 0 0 1 0.5 8.5 A8 8 0 0 1 16.5 8.5 z"
    />
    <path
      fill="currentColor"
      d="M7 6 A1 1 0 0 1 6 7 A1 1 0 0 1 5 6 A1 1 0 0 1 7 6 z"
    />
    <path
      fill="currentColor"
      d="M12 6 A1 1 0 0 1 11 7 A1 1 0 0 1 10 6 A1 1 0 0 1 12 6 z"
    />
    <path
      stroke="currentColor"
      strokeLinecap="round"
      strokeLinejoin="round"
      d="M5.5 10.5h6"
    />
  </g>
</svg>