<?xml version="1.0" standalone="no"?>
<!DOCTYPE svg PUBLIC "-//W3C//DTD SVG 20010904//EN"
 "http://www.w3.org/TR/2001/REC-SVG-20010904/DTD/svg10.dtd">
<svg version="1.0" xmlns="http://www.w3.org/2000/svg"
 width="400.000000pt" height="180.000000pt" viewBox="0 0 400.000000 180.000000"
 preserveAspectRatio="xMidYMid meet">

<g transform="translate(0.000000,180.000000) scale(0.100000,-0.100000)"
fill="currentColor" stroke="none">
<path d="M1118 1616 c-72 -16 -145 -61 -179 -111 -51 -75 -62 -126 -67 -307
l-4 -168 91 0 91 0 0 133 c0 165 16 229 63 257 39 24 116 26 157 5 54 -28 64
-63 68 -237 l4 -158 90 0 90 0 -4 173 c-4 150 -7 179 -28 231 -56 144 -208
218 -372 182z"/>
<path d="M3230 1330 l0 -300 90 0 90 0 -2 298 -3 297 -87 3 -88 3 0 -301z"/>
<path d="M190 1325 l0 -295 95 0 95 0 0 205 0 205 193 2 192 3 3 88 3 87 -291
0 -290 0 0 -295z"/>
<path d="M2060 1605 c-54 -17 -113 -64 -145 -115 -41 -65 -56 -135 -62 -302
l-6 -158 90 0 90 0 6 150 c10 221 30 255 149 255 65 0 71 -2 98 -31 30 -34 50
-118 50 -212 l0 -52 90 0 90 0 0 67 c0 211 -79 358 -213 398 -62 18 -177 18
-237 0z"/>
<path d="M2550 1325 l0 -295 95 0 95 0 0 205 0 205 193 2 192 3 3 88 3 87
-291 0 -290 0 0 -295z"/>
<path d="M1600 1195 l0 -135 90 0 90 0 0 135 0 135 -90 0 -90 0 0 -135z"/>
<path d="M195 828 c-3 -7 -4 -139 -3 -293 l3 -280 93 -3 92 -3 -2 293 -3 293
-88 3 c-65 2 -89 -1 -92 -10z"/>
<path d="M872 673 c4 -143 8 -176 26 -224 29 -73 82 -133 146 -166 44 -23 63
-27 146 -27 78 -1 104 3 145 22 69 32 112 76 148 152 30 63 31 69 35 238 l4
173 -89 -3 -88 -3 -5 -150 c-4 -118 -9 -157 -23 -182 -51 -93 -188 -95 -242
-3 -17 30 -20 56 -23 188 l-4 152 -90 0 -90 0 4 -167z"/>
<path d="M1857 833 c-10 -9 -8 -163 3 -266 21 -203 136 -317 320 -317 121 0
219 53 272 146 36 65 60 176 56 268 l-3 71 -85 0 -85 0 -8 -95 c-11 -120 -34
-175 -81 -195 -80 -34 -156 -9 -187 59 -15 35 -21 77 -26 191 l-6 145 -82 0
c-45 0 -85 -3 -88 -7z"/>
<path d="M2557 834 c-4 -4 -7 -137 -7 -296 l0 -288 290 0 290 0 0 90 0 90
-195 0 -195 0 -2 203 -3 202 -85 3 c-47 1 -89 0 -93 -4z"/>
<path d="M3230 545 l0 -295 300 0 300 0 0 90 0 90 -210 0 -210 0 -2 203 -3
202 -87 3 -88 3 0 -296z"/>
<path d="M1607 814 c-4 -4 -7 -65 -7 -136 l0 -128 90 0 91 0 -3 133 -3 132
-80 3 c-45 1 -84 0 -88 -4z"/>
</g>
</svg>
