<?xml version="1.0" standalone="no"?>
<!DOCTYPE svg PUBLIC "-//W3C//DTD SVG 20010904//EN"
 "http://www.w3.org/TR/2001/REC-SVG-20010904/DTD/svg10.dtd">
<svg version="1.0" xmlns="http://www.w3.org/2000/svg"
 width="1400.000000pt" height="600.000000pt" viewBox="0 0 1400.000000 600.000000"
 preserveAspectRatio="xMidYMid meet">

<g transform="translate(0.000000,600.000000) scale(0.100000,-0.100000)"
fill="#000000" stroke="none">
<path d="M528 5434 c-5 -4 -8 -1136 -8 -2516 l0 -2508 538 0 c553 0 657 6 822
44 206 48 359 134 500 282 219 229 312 483 340 923 22 354 -26 697 -132 939
-38 86 -146 261 -188 306 -17 18 -16 21 41 97 178 236 255 474 280 868 19 302
-15 604 -94 836 -99 291 -317 531 -574 633 -221 87 -287 94 -953 99 -311 3
-568 1 -572 -3z m1177 -659 c97 -20 186 -66 224 -114 106 -134 161 -404 148
-721 -16 -366 -87 -538 -259 -630 -88 -47 -177 -59 -435 -60 l-223 0 0 768 c0
423 3 772 8 777 13 14 450 -2 537 -20z m0 -2190 c146 -32 221 -91 281 -221 68
-147 101 -378 91 -629 -16 -353 -90 -541 -248 -621 -95 -48 -164 -57 -424 -58
l-240 -1 -3 765 c-1 421 0 771 3 779 8 19 438 9 540 -14z"/>
<path d="M4180 5418 c-6 -13 -267 -1137 -580 -2498 -314 -1361 -573 -2483
-576 -2493 -5 -16 13 -17 327 -15 l333 3 142 625 c79 344 150 658 159 698 l16
72 438 0 437 0 160 -700 159 -700 333 0 c182 0 332 3 332 8 1 22 -1165 4999
-1173 5010 -7 9 -70 12 -253 12 -244 0 -244 0 -254 -22z m404 -2353 c75 -324
136 -593 136 -597 0 -5 -126 -8 -280 -8 -217 0 -280 3 -280 13 0 30 275 1196
281 1189 4 -4 68 -272 143 -597z"/>
<path d="M5938 5434 c-5 -4 -8 -1136 -8 -2516 l0 -2508 553 0 c568 0 686 6
847 44 274 64 471 198 628 424 111 160 175 329 225 597 20 107 20 149 24 1380
3 1088 2 1289 -11 1402 -44 378 -150 640 -340 841 -167 176 -360 271 -648 318
-85 14 -203 17 -683 21 -319 3 -583 1 -587 -3z m1212 -659 c188 -37 280 -126
350 -334 61 -182 61 -178 57 -1572 -3 -1250 -3 -1265 -24 -1355 -29 -123 -65
-208 -117 -278 -112 -149 -251 -189 -636 -184 l-205 3 -3 1860 c-1 1023 0
1866 3 1874 8 19 465 8 575 -14z"/>
<path d="M9696 5423 c-3 -10 -262 -1132 -575 -2493 -314 -1361 -573 -2485
-576 -2497 l-5 -23 329 0 c305 0 330 1 335 18 3 9 73 314 155 677 83 363 153
670 156 683 l5 22 438 0 437 0 159 -700 160 -700 333 0 c183 0 333 2 333 5 0
16 -1162 4984 -1170 5003 -10 22 -10 22 -259 22 -229 0 -250 -1 -255 -17z
m408 -2362 c75 -326 135 -595 133 -597 -2 -3 -130 -3 -284 -2 l-279 3 92 400
c52 220 114 491 140 603 26 111 50 199 54 195 4 -4 68 -275 144 -602z"/>
<path d="M11450 2930 l0 -2510 1095 0 1095 0 -2 318 -3 317 -772 3 -773 2 0
2190 0 2190 -320 0 -320 0 0 -2510z"/>
</g>
</svg>
