<?xml version="1.0" encoding="utf-8"?>
<svg version="1.0" width="400.000000pt" height="180.000000pt" viewBox="0 0 400.000000 180.000000" preserveAspectRatio="xMidYMid meet" xmlns="http://www.w3.org/2000/svg">
  <g transform="matrix(0.1, 0, 0, -0.1, -1.253347, 177.891083)" fill="currentColor" stroke="none">
    <path d="M160 885 l0 -705 95 0 95 0 0 305 0 305 200 0 200 0 0 95 0 95 -200 0 -200 0 0 210 0 210 198 2 197 3 3 93 3 92 -296 0 -295 0 0 -705z" style="fill: rgba(0, 0, 0, 0.8);"/>
    <path d="M1067 1573 c-116 -39 -189 -151 -207 -315 -13 -127 -13 -622 1 -745 17 -158 77 -257 182 -304 43 -19 69 -23 147 -23 116 0 178 23 240 90 89 97 100 162 100 609 0 384 -6 447 -53 543 -53 111 -145 163 -285 161 -42 0 -99 -7 -125 -16z m229 -206 c42 -49 45 -85 42 -499 -3 -438 -5 -447 -72 -483 -47 -25 -137 -17 -171 15 -52 49 -56 93 -53 512 3 371 4 384 25 424 28 53 54 64 137 61 60 -2 71 -6 92 -30z" style="fill: rgba(0, 0, 0, 0.8);"/>
    <path d="M2066 1566 c-32 -14 -74 -39 -91 -56 -40 -38 -79 -117 -94 -188 -15 -72 -15 -802 0 -874 34 -160 134 -252 286 -265 169 -14 282 55 344 208 16 41 23 83 27 172 l5 118 -94 -3 -94 -3 -6 -100 c-8 -161 -41 -205 -152 -205 -68 0 -98 22 -124 88 -16 43 -18 83 -18 432 0 421 2 439 56 485 26 21 41 25 96 25 58 0 68 -3 93 -28 36 -37 50 -88 50 -189 l0 -83 96 0 97 0 -5 113 c-4 80 -12 127 -27 167 -55 142 -140 202 -295 207 -79 3 -99 0 -150 -21z" style="fill: rgba(0, 0, 0, 0.8);"/>
    <path d="M2590 885 l0 -705 295 0 296 0 -3 92 -3 93 -197 3 -198 2 0 210 0 210 198 2 197 3 0 90 0 90 -197 3 -198 2 0 210 0 210 198 2 197 3 3 93 3 92 -296 0 -295 0 0 -705z" style="fill: rgba(0, 0, 0, 0.8);"/>
    <path d="M3280 885 l0 -705 310 0 311 0 -3 92 -3 93 -212 3 -213 2 -2 608 -3 607 -92 3 -93 3 0 -706z" style="fill: rgba(0, 0, 0, 0.8);"/>
    <path d="M1612 1153 l3 -138 85 0 85 0 0 135 0 135 -88 3 -88 3 3 -138z" style="fill: rgba(0, 0, 0, 0.8);"/>
    <path d="M1610 625 l0 -135 90 0 90 0 0 135 0 135 -90 0 -90 0 0 -135z" style="fill: rgba(0, 0, 0, 0.8);"/>
  </g>
</svg>